<?xml version="1.0" encoding="UTF-8"?>
<svg id="Layer_1" data-name="Layer 1" xmlns="http://www.w3.org/2000/svg" xmlns:xlink="http://www.w3.org/1999/xlink" viewBox="0 0 24 19.07">
  <defs>
    <style>
      .cls-1 {
        filter: url(#drop-shadow-2);
      }

      .cls-2 {
        fill: url(#linear-gradient-2);
      }

      .cls-3 {
        fill: url(#linear-gradient);
      }
    </style>
    <filter id="drop-shadow-2" x="0" y="0" width="24" height="19.07" filterUnits="userSpaceOnUse">
      <feOffset dx="0" dy="16"/>
      <feGaussianBlur result="blur" stdDeviation="12"/>
      <feFlood flood-color="#9e9eaf" flood-opacity=".75"/>
      <feComposite in2="blur" operator="in"/>
      <feComposite in="SourceGraphic"/>
    </filter>
    <linearGradient id="linear-gradient" x1="12.91" y1="4.36" x2="24.96" y2="15.58" gradientUnits="userSpaceOnUse">
      <stop offset="0" stop-color="#969696"/>
      <stop offset="1" stop-color="#000"/>
    </linearGradient>
    <linearGradient id="linear-gradient-2" x1="-2.58" y1="2.77" x2="12.87" y2="17.15" xlink:href="#linear-gradient"/>
  </defs>
  <g class="cls-1">
    <g>
      <path class="cls-3" d="M24,0v16.62c-5.33,0-8.74.73-11.08,2.45v-9.64h3.02c.49,0,.92-.37.95-.86.04-.54-.39-.99-.92-.99h-3.05v-.71c0-2.87,1.9-5.4,4.67-6.16,1.56-.43,3.63-.69,6.41-.71Z"/>
      <path class="cls-2" d="M7.1,8.44c-.03.54.39.98.92.98h3.06v9.64c-2.33-1.72-5.74-2.45-11.06-2.45,0-.02-.02-.06-.02-.11V0c2.19.01,4.56.14,6.56.74,2.69.8,4.51,3.31,4.51,6.12v.73h-3.02c-.49,0-.92.37-.95.86Z"/>
    </g>
  </g>
</svg>