<svg width="140" height="121" viewBox="0 0 140 121" fill="none" xmlns="http://www.w3.org/2000/svg">
<path d="M137.258 2.69713C135.501 0.959291 133.173 0 130.691 0H130.654C110.935 0.0880506 96.221 2.57201 85.6852 7.59089C78.7698 10.8858 73.5739 15.2559 70.0047 20.817C66.4308 15.2559 61.235 10.8858 54.3195 7.59089C43.7838 2.57201 29.0746 0.0880506 9.33219 0H9.28106C4.14098 0.018537 -0.0231405 4.20326 9.67832e-05 9.30556V92.5133C9.67832e-05 98.1393 4.01085 102.384 9.33219 102.384C31.9142 102.384 54.445 104.428 66.3332 119.22C66.4169 119.327 66.5005 119.424 66.5888 119.522C66.6864 119.628 66.7794 119.721 66.8816 119.814C67.6996 120.546 68.7824 120.995 69.9722 121H70.0233C71.2037 120.995 72.2773 120.551 73.0906 119.832C73.2114 119.726 73.3276 119.61 73.4392 119.489C73.5182 119.406 73.5925 119.313 73.6622 119.225C80.6938 110.476 92.4844 102.389 130.668 102.389C135.813 102.389 140 98.2135 140 93.0834V9.26385C139.986 6.78453 139.01 4.4535 137.249 2.70639L137.258 2.69713ZM65.3387 47.5288H49.8905C47.3158 47.5288 45.2245 49.6142 45.2245 52.1815C45.2245 54.7489 47.3158 56.8343 49.8905 56.8343H65.3387V105.434C53.562 96.7676 36.3014 93.0834 9.42049 93.0741C9.37866 92.9629 9.33683 92.7775 9.33683 92.5133V9.30556C32.4207 9.41214 59.5758 12.239 65.3433 33.1765V47.5288H65.3387ZM130.677 93.0787C103.75 93.0787 86.4613 96.7629 74.6707 105.438V56.839H90.1142C92.6936 56.839 94.7803 54.7582 94.7803 52.1862C94.7803 49.6142 92.6936 47.5334 90.1142 47.5334H74.6707V33.1812C77.6869 22.0497 87.0748 9.50946 130.677 9.31019V93.0834V93.0787Z" fill="url(#paint0_linear_146_59)"/>
<defs>
<linearGradient id="paint0_linear_146_59" x1="16.1779" y1="1.20954" x2="134.996" y2="112.129" gradientUnits="userSpaceOnUse">
<stop stop-color="#969696"/>
<stop offset="1"/>
</linearGradient>
</defs>
</svg>
